<svg xmlns="http://www.w3.org/2000/svg" width="1920" height="1080" fill="none" viewBox="0 0 1920 1080"><g clip-path="url(#clip0_921_5143)"><path stroke="#000" d="M844 1106.5C751.167 1087.33 545.9 983.3 467.5 720.5C389.1 457.7 123.167 184 0 80"/><path stroke="#000" d="M77.9998 1106.5C61.1665 1040.33 37.5998 877.7 77.9998 756.5C118.4 635.3 26.1666 499.667 -25 447"/><path stroke="#000" d="M807.858 1106.5C718.61 1085.12 521.917 978.317 449.122 722.199C376.327 466.08 118.59 198.894 -1.17969 97.3162"/><path stroke="#000" d="M771.682 1106.5C686.024 1082.9 497.911 973.33 430.727 723.899C363.543 474.467 114.009 213.802 -2.36035 114.648"/><path stroke="#000" d="M735.473 1106.5C653.408 1080.67 473.884 968.339 412.316 725.601C350.747 482.862 109.424 228.724 -3.54199 131.997"/><path stroke="#000" d="M699.231 1106.5C620.761 1078.45 449.835 963.342 393.887 727.304C337.94 491.265 104.835 243.659 -4.72461 149.361"/><path stroke="#000" d="M662.955 1106.5C588.085 1076.22 425.763 958.341 375.441 729.009C325.12 499.676 100.241 258.608 -5.90869 166.741"/><path stroke="#000" d="M626.646 1106.5C555.378 1074 401.669 953.336 356.979 730.715C312.288 508.094 95.6428 273.571 -7.09375 184.137"/><path stroke="#000" d="M590.303 1106.5C522.641 1071.77 377.553 948.326 338.499 732.423C299.445 516.52 91.0407 288.548 -8.27979 201.549"/><path stroke="#000" d="M553.927 1106.5C489.874 1069.54 353.414 943.311 320.002 734.133C286.59 524.954 86.4341 303.538 -9.46729 218.977"/><path stroke="#000" d="M517.518 1106.5C457.077 1067.3 329.254 938.291 301.489 735.844C273.723 533.396 81.8238 318.542 -10.6553 236.421"/><path stroke="#000" d="M481.075 1106.5C424.25 1065.06 305.071 933.267 282.958 737.556C260.844 541.845 77.2089 333.56 -11.8447 253.882"/><path stroke="#000" d="M444.599 1106.5C391.393 1062.83 280.867 928.239 264.41 739.271C247.954 550.303 72.5899 348.592 -13.0352 271.358"/><path stroke="#000" d="M408.089 1106.5C358.505 1060.59 256.639 923.206 245.845 740.987C235.051 558.768 67.9663 363.638 -14.2271 288.85"/><path stroke="#000" d="M371.546 1106.5C325.588 1058.34 232.391 918.168 227.264 742.704C222.138 567.24 63.339 378.697 -15.4194 306.358"/><path stroke="#000" d="M334.97 1106.5C292.641 1056.1 208.119 913.126 208.665 744.423C209.212 575.721 58.7072 393.77 -16.6133 323.883"/><path stroke="#000" d="M298.36 1106.5C259.663 1053.85 183.826 908.079 190.05 746.144C196.274 584.209 54.0712 408.857 -17.8081 341.423"/><path stroke="#000" d="M261.717 1106.5C226.656 1051.61 159.51 903.027 171.417 747.866C183.325 592.705 49.4312 423.957 -19.0039 358.979"/><path stroke="#000" d="M225.04 1106.5C193.618 1049.36 135.172 897.971 152.768 749.589C170.363 601.208 44.7865 439.072 -20.2012 376.551"/><path stroke="#000" d="M188.33 1106.5C160.551 1047.1 110.813 892.91 134.101 751.315C157.39 609.72 40.1382 454.2 -21.3989 394.139"/><path stroke="#000" d="M151.587 1106.5C127.453 1044.85 86.4307 887.845 115.418 753.042C144.405 618.239 35.4853 469.342 -22.5981 411.744"/><path stroke="#000" d="M114.81 1106.5C94.3243 1042.59 62.026 882.775 96.7171 754.77C131.408 626.765 30.8277 484.497 -23.7988 429.364"/><path stroke="#305055" d="M1987 869C1956.5 770.5 1834.4 569.1 1590 551.5C1284.5 529.5 1447 50.5 761.5 -34.5"/><path stroke="#305055" d="M2021 454.5C1988.67 347.833 1880.9 133.1 1708.5 127.5C1536.1 121.9 1515.67 -84.5 1527 -187"/><path stroke="#305055" d="M1988.17 853.6C1957.6 754.796 1836.03 552.901 1594.31 535.747C1293.75 514.356 1449.46 45.4842 789.846 -40.166"/><path stroke="#305055" d="M1989.37 837.766C1958.73 738.651 1837.71 536.246 1598.74 519.55C1303.27 498.786 1451.98 40.3272 818.99 -45.9915"/><path stroke="#305055" d="M1990.6 821.498C1959.89 722.062 1839.44 519.134 1603.29 502.91C1313.04 482.789 1454.58 35.0289 848.933 -51.9766"/><path stroke="#305055" d="M1991.87 804.797C1961.09 705.032 1841.21 501.567 1607.96 485.826C1323.07 466.366 1457.24 29.5895 879.673 -58.1211"/><path stroke="#305055" d="M1993.17 787.662C1962.31 687.559 1843.02 483.543 1612.75 468.298C1333.37 449.516 1459.97 24.0088 911.213 -64.4253"/><path stroke="#305055" d="M1994.5 770.093C1963.56 669.644 1844.88 465.062 1617.66 450.326C1343.92 432.239 1462.77 18.2864 943.551 -70.8894"/><path stroke="#305055" d="M1995.87 752.09C1964.85 651.286 1846.79 446.126 1622.7 431.91C1354.74 414.536 1465.64 12.4232 976.688 -77.5127"/><path stroke="#305055" d="M1997.27 733.653C1966.17 632.486 1848.75 426.733 1627.86 413.051C1365.82 396.406 1468.59 6.41839 1010.62 -84.2959"/><path stroke="#305055" d="M1998.7 714.782C1967.51 613.244 1850.75 406.883 1633.14 393.748C1377.16 377.85 1471.59 0.272217 1045.36 -91.2388"/><path stroke="#305055" d="M2000.16 695.478C1968.89 593.56 1852.79 386.578 1638.53 374.001C1388.75 358.867 1474.67 -6.01482 1080.89 -98.3408"/><path stroke="#305055" d="M2001.66 675.74C1970.3 573.433 1854.89 365.816 1644.06 353.811C1400.61 339.457 1477.82 -12.4434 1117.22 -105.603"/><path stroke="#305055" d="M2003.19 655.568C1971.74 552.863 1857.02 344.598 1649.7 333.177C1412.73 319.621 1481.04 -19.0134 1154.35 -113.024"/><path stroke="#305055" d="M2004.75 634.963C1973.22 531.851 1859.21 322.923 1655.46 312.099C1425.11 299.358 1484.32 -25.7245 1192.27 -120.605"/><path stroke="#305055" d="M2006.35 613.923C1974.72 510.397 1861.44 300.792 1661.35 290.577C1437.75 278.669 1487.68 -32.577 1231 -128.346"/><path stroke="#305055" d="M2007.97 592.45C1976.25 488.501 1863.71 278.205 1667.35 268.611C1450.66 257.553 1491.1 -39.5708 1270.52 -136.247"/><path stroke="#305055" d="M2009.64 570.543C1977.82 466.162 1866.04 255.162 1673.48 246.202C1463.82 236.011 1494.6 -46.7057 1310.85 -144.306"/><path stroke="#305055" d="M2011.33 548.202C1979.41 443.381 1868.41 231.662 1679.73 223.349C1477.24 214.042 1498.16 -53.9819 1351.97 -152.526"/><path stroke="#305055" d="M2013.06 525.427C1981.04 420.158 1870.82 207.706 1686.1 200.053C1490.92 191.646 1501.79 -61.3995 1393.89 -160.905"/><path stroke="#305055" d="M2014.82 502.218C1982.7 396.492 1873.28 183.294 1692.59 176.312C1504.87 168.824 1505.49 -68.9585 1436.61 -169.444"/><path stroke="#305055" d="M2016.61 478.576C1984.39 372.384 1875.79 158.425 1699.2 152.128C1519.07 145.575 1509.27 -76.6586 1480.12 -178.142"/></g><defs><clipPath id="clip0_921_5143"><rect width="1920" height="1080" fill="#fff"/></clipPath></defs></svg>