<svg width="428" height="264" viewBox="0 0 428 264" fill="none" xmlns="http://www.w3.org/2000/svg">
<path fill-rule="evenodd" clip-rule="evenodd" d="M-158 79.8571H-138.86C-119.14 79.8571 -80.86 79.8571 -42 93.7619C-3.14 107.667 35.14 135.476 74 145.905C112.86 156.333 151.14 149.381 190 128.524C228.86 107.667 267.14 72.9048 306 83.3333C344.86 93.7619 383.14 149.381 422 152.857C460.86 156.333 499.14 107.667 518.86 83.3333L538 59V205H518.86C499.14 205 460.86 205 422 205C383.14 205 344.86 205 306 205C267.14 205 228.86 205 190 205C151.14 205 112.86 205 74 205C35.14 205 -3.14 205 -42 205C-80.86 205 -119.14 205 -138.86 205H-158V79.8571Z" fill="url(#paint0_linear_298_1079)"/>
<path fill-rule="evenodd" clip-rule="evenodd" d="M-129 20.8571H-109.86C-90.14 20.8571 -51.86 20.8571 -13 34.7619C25.86 48.6667 64.14 76.4762 103 86.9048C141.86 97.3333 180.14 90.381 219 69.5238C257.86 48.6667 296.14 13.9048 335 24.3333C373.86 34.7619 412.14 90.381 451 93.8571C489.86 97.3333 528.14 48.6667 547.86 24.3333L567 0V146H547.86C528.14 146 489.86 146 451 146C412.14 146 373.86 146 335 146C296.14 146 257.86 146 219 146C180.14 146 141.86 146 103 146C64.14 146 25.86 146 -13 146C-51.86 146 -90.14 146 -109.86 146H-129V20.8571Z" fill="url(#paint1_linear_298_1079)"/>
<path fill-rule="evenodd" clip-rule="evenodd" d="M-186 17L-163 31C-140 45 -93 73 -47 73C0 73 46 45 92 55C139 66 185 114 232 121C278 128 324 94 371 83C417 73 464 87 487 94L510 101V205H487C464 205 417 205 371 205C324 205 278 205 232 205C185 205 139 205 92 205C46 205 0 205 -47 205C-93 205 -140 205 -163 205H-186V17Z" fill="url(#paint2_linear_298_1079)"/>
<path fill-rule="evenodd" clip-rule="evenodd" d="M-221 127.871L-196.968 140.014C-172.936 152.157 -123.875 176.365 -78.0177 172.738C-31.164 169.033 12.4853 137.494 59.1305 143.836C106.851 151.096 156.493 195.32 203.898 198.593C250.307 201.945 293.483 164.424 339.47 149.753C384.538 136.158 432.495 146.409 455.976 151.574L479.456 156.739L487.655 260.415L464.727 262.228C441.798 264.041 394.945 267.747 349.088 271.373C302.234 275.079 256.377 278.705 210.52 282.332C163.667 286.037 117.81 289.664 70.9562 293.369C25.0994 296.996 -20.7574 300.622 -67.6112 304.327C-113.468 307.954 -160.322 311.659 -183.25 313.473L-206.179 315.286L-221 127.871Z" fill="url(#paint3_linear_298_1079)"/>
<defs>
<linearGradient id="paint0_linear_298_1079" x1="190" y1="59" x2="190" y2="205" gradientUnits="userSpaceOnUse">
<stop stop-color="#3FF1A6"/>
<stop offset="1" stop-color="white" stop-opacity="0"/>
</linearGradient>
<linearGradient id="paint1_linear_298_1079" x1="219" y1="0" x2="219" y2="146" gradientUnits="userSpaceOnUse">
<stop stop-color="#3FF1A6"/>
<stop offset="1" stop-color="white" stop-opacity="0"/>
</linearGradient>
<linearGradient id="paint2_linear_298_1079" x1="162" y1="17" x2="162" y2="205" gradientUnits="userSpaceOnUse">
<stop stop-color="#3FF1A6"/>
<stop offset="1" stop-color="white" stop-opacity="0"/>
</linearGradient>
<linearGradient id="paint3_linear_298_1079" x1="125.917" y1="100.436" x2="140.738" y2="287.85" gradientUnits="userSpaceOnUse">
<stop stop-color="#3FF1A6"/>
<stop offset="1" stop-color="white" stop-opacity="0"/>
</linearGradient>
</defs>
</svg>
