<svg width="1920" height="1080" viewBox="0 0 1920 1080" fill="none" xmlns="http://www.w3.org/2000/svg">
<g clip-path="url(#clip0_311_1085)">
<rect width="1920" height="1080" fill="url(#paint0_linear_311_1085)"/>
<path fill-rule="evenodd" clip-rule="evenodd" d="M-191 927.714H-128.85C-64.8167 927.714 59.4833 927.714 185.667 972.857C311.85 1018 436.15 1108.29 562.333 1142.14C688.517 1176 812.817 1153.43 939 1085.71C1065.18 1018 1189.48 905.143 1315.67 939C1441.85 972.857 1566.15 1153.43 1692.33 1164.71C1818.52 1176 1942.82 1018 2006.85 939L2069 860V1334H2006.85C1942.82 1334 1818.52 1334 1692.33 1334C1566.15 1334 1441.85 1334 1315.67 1334C1189.48 1334 1065.18 1334 939 1334C812.817 1334 688.517 1334 562.333 1334C436.15 1334 311.85 1334 185.667 1334C59.4833 1334 -64.8167 1334 -128.85 1334H-191V927.714Z" fill="url(#paint1_linear_311_1085)"/>
<path fill-rule="evenodd" clip-rule="evenodd" d="M-36 655.143H18.285C74.215 655.143 182.785 655.143 293 694.571C403.215 734 511.785 812.857 622 842.429C732.215 872 840.785 852.286 951 793.143C1061.21 734 1169.78 635.429 1280 665C1390.21 694.571 1498.78 852.286 1609 862.143C1719.21 872 1827.78 734 1883.71 665L1938 596V1010H1883.71C1827.78 1010 1719.21 1010 1609 1010C1498.78 1010 1390.21 1010 1280 1010C1169.78 1010 1061.21 1010 951 1010C840.785 1010 732.215 1010 622 1010C511.785 1010 403.215 1010 293 1010C182.785 1010 74.215 1010 18.285 1010H-36V655.143Z" fill="url(#paint2_linear_311_1085)"/>
<path fill-rule="evenodd" clip-rule="evenodd" d="M-198 627L-117.599 675.926C-37.1983 724.851 127.099 822.702 287.901 822.702C452.198 822.702 613 724.851 773.802 759.798C938.099 798.239 1098.9 965.984 1263.2 990.447C1424 1014.91 1584.8 896.09 1749.1 857.649C1909.9 822.702 2074.2 871.628 2154.6 896.09L2235 920.553V1284H2154.6C2074.2 1284 1909.9 1284 1749.1 1284C1584.8 1284 1424 1284 1263.2 1284C1098.9 1284 938.099 1284 773.802 1284C613 1284 452.198 1284 287.901 1284C127.099 1284 -37.1983 1284 -117.599 1284H-198V627Z" fill="url(#paint3_linear_311_1085)"/>
</g>
<defs>
<linearGradient id="paint0_linear_311_1085" x1="960" y1="0" x2="960" y2="1080" gradientUnits="userSpaceOnUse">
<stop stop-color="#143450"/>
<stop offset="1" stop-color="#1D566E"/>
</linearGradient>
<linearGradient id="paint1_linear_311_1085" x1="939" y1="860" x2="939" y2="1334" gradientUnits="userSpaceOnUse">
<stop stop-color="#39C0DB"/>
<stop offset="1" stop-color="white" stop-opacity="0"/>
</linearGradient>
<linearGradient id="paint2_linear_311_1085" x1="951" y1="596" x2="951" y2="1010" gradientUnits="userSpaceOnUse">
<stop stop-color="#39C0DB"/>
<stop offset="1" stop-color="white" stop-opacity="0"/>
</linearGradient>
<linearGradient id="paint3_linear_311_1085" x1="1018.5" y1="627" x2="1018.5" y2="1284" gradientUnits="userSpaceOnUse">
<stop stop-color="#39C0DB"/>
<stop offset="1" stop-color="white" stop-opacity="0"/>
</linearGradient>
<clipPath id="clip0_311_1085">
<rect width="1920" height="1080" fill="white"/>
</clipPath>
</defs>
</svg>
