<svg xmlns="http://www.w3.org/2000/svg" width="91" height="30" fill="none" viewBox="0 0 91 30"><path fill="#0F343A" d="M0.78125 20.7188C0.78125 19.625 0.820312 18.6094 0.898438 17.6719C0.976562 16.7344 1.10677 15.8229 1.28906 14.9375C1.47135 14.026 1.67969 13.1146 1.91406 12.2031C2.17448 11.2656 2.48698 10.263 2.85156 9.19531C3.08594 8.46615 3.45052 7.58073 3.94531 6.53906C4.46615 5.4974 5.07812 4.52083 5.78125 3.60938C6.51042 2.67188 7.31771 1.8776 8.20312 1.22656C9.11458 0.575521 10.0651 0.25 11.0547 0.25H14.2969C14.3229 0.25 14.401 0.276042 14.5312 0.328125C14.6875 0.354167 14.8047 0.380208 14.8828 0.40625C15.8984 0.901042 16.6927 1.51302 17.2656 2.24219C17.8385 2.94531 18.2292 3.85677 18.4375 4.97656C18.6719 6.04427 18.9193 7.07292 19.1797 8.0625C19.4661 9.02604 19.6094 10.0417 19.6094 11.1094C19.6094 12.3854 19.5703 13.6484 19.4922 14.8984C19.4401 16.1484 19.4141 17.4115 19.4141 18.6875C19.4141 18.7656 19.4141 18.9089 19.4141 19.1172C19.4141 19.2995 19.4141 19.5078 19.4141 19.7422C19.4401 19.9766 19.4531 20.1979 19.4531 20.4062C19.4531 20.6146 19.4531 20.7448 19.4531 20.7969C19.4792 21.0052 19.5052 21.3047 19.5312 21.6953C19.5573 22.0859 19.6094 22.5156 19.6875 22.9844C19.7656 23.4531 19.8438 23.9349 19.9219 24.4297C20 24.9245 20.0911 25.3802 20.1953 25.7969C20.3255 26.1875 20.4688 26.513 20.625 26.7734C20.7812 27.0339 20.9635 27.1641 21.1719 27.1641C21.875 27.1641 22.6042 27.0729 23.3594 26.8906C24.1406 26.7083 24.8438 26.4219 25.4688 26.0312C25.5208 25.9792 25.638 25.888 25.8203 25.7578C26.0286 25.6016 26.237 25.4453 26.4453 25.2891C26.6797 25.1068 26.888 24.9505 27.0703 24.8203C27.2786 24.6641 27.4349 24.5469 27.5391 24.4688C27.7214 24.3385 27.8646 24.2474 27.9688 24.1953C28.099 24.1172 28.2552 24.0781 28.4375 24.0781C28.5938 24.0781 28.737 24.1302 28.8672 24.2344C28.9974 24.3125 29.0625 24.4427 29.0625 24.625C29.0625 25.224 28.724 25.7839 28.0469 26.3047C27.3958 26.8255 26.6276 27.2943 25.7422 27.7109C24.8568 28.1276 23.9583 28.4661 23.0469 28.7266C22.1615 28.9609 21.4974 29.0781 21.0547 29.0781C20.4818 29.0781 19.987 28.7917 19.5703 28.2188C19.1797 27.6198 18.8281 26.9297 18.5156 26.1484C18.2292 25.3411 17.9688 24.5208 17.7344 23.6875C17.526 22.8281 17.3177 22.125 17.1094 21.5781C16.7448 22.6198 16.1979 23.5964 15.4688 24.5078C14.7656 25.3932 13.9583 26.1745 13.0469 26.8516C12.1354 27.5286 11.1458 28.0625 10.0781 28.4531C9.01042 28.8438 7.92969 29.0391 6.83594 29.0391C5.63802 29.0391 4.63542 28.8047 3.82812 28.3359C3.04688 27.8411 2.42188 27.2161 1.95312 26.4609C1.51042 25.6797 1.19792 24.7943 1.01562 23.8047C0.859375 22.7891 0.78125 21.7604 0.78125 20.7188ZM3.20312 20.4062C3.20312 21.1875 3.21615 21.9818 3.24219 22.7891C3.29427 23.5703 3.4375 24.2865 3.67188 24.9375C3.93229 25.5885 4.32292 26.1224 4.84375 26.5391C5.39062 26.9297 6.15885 27.125 7.14844 27.125C8.45052 27.125 9.60938 26.8385 10.625 26.2656C11.6406 25.6667 12.526 24.8984 13.2812 23.9609C14.0365 22.9974 14.6745 21.9036 15.1953 20.6797C15.7161 19.4297 16.1328 18.1667 16.4453 16.8906C16.7578 15.5885 16.9792 14.3255 17.1094 13.1016C17.2656 11.8776 17.3438 10.7839 17.3438 9.82031C16.6667 9.82031 16.3281 9.50781 16.3281 8.88281C16.3281 8.49219 16.4062 8.15365 16.5625 7.86719C16.7188 7.55469 16.7969 7.16406 16.7969 6.69531C16.7969 6.1224 16.6927 5.5625 16.4844 5.01562C16.3021 4.46875 16.0156 3.97396 15.625 3.53125C15.2604 3.08854 14.8177 2.75 14.2969 2.51562C13.8021 2.25521 13.2552 2.125 12.6562 2.125C11.4323 2.125 10.3516 2.46354 9.41406 3.14062C8.5026 3.79167 7.69531 4.65104 6.99219 5.71875C6.28906 6.78646 5.6901 7.9974 5.19531 9.35156C4.72656 10.6797 4.33594 12.0339 4.02344 13.4141C3.73698 14.7682 3.52865 16.0703 3.39844 17.3203C3.26823 18.5443 3.20312 19.5729 3.20312 20.4062ZM28.8672 23.6484C28.9974 22.3203 29.2969 21.0573 29.7656 19.8594C30.2604 18.6615 30.8203 17.6328 31.4453 16.7734C32.0964 15.9141 32.7474 15.25 33.3984 14.7812C34.0755 14.3125 34.6615 14.1693 35.1562 14.3516C35.2865 14.2734 35.3906 14.2083 35.4688 14.1562C35.5729 14.0781 35.651 14.013 35.7031 13.9609C35.7812 13.8828 35.8594 13.8307 35.9375 13.8047C36.0417 13.7526 36.1849 13.7266 36.3672 13.7266C36.7318 13.7266 37.0573 13.8438 37.3438 14.0781C37.6302 14.3125 37.8776 14.599 38.0859 14.9375C38.3203 15.276 38.4896 15.6406 38.5938 16.0312C38.724 16.3958 38.7891 16.7344 38.7891 17.0469C38.7891 17.3854 38.6589 17.6198 38.3984 17.75C38.138 17.8802 37.8385 17.9453 37.5 17.9453C37.2917 17.9453 37.1094 17.9062 36.9531 17.8281C36.7969 17.724 36.6536 17.6068 36.5234 17.4766C36.4193 17.3464 36.3021 17.2161 36.1719 17.0859C36.0417 16.9557 35.8724 16.8646 35.6641 16.8125H35.625H35.5078C35.4818 16.8385 35.4167 16.9036 35.3125 17.0078C35.2344 17.0859 35.1823 17.151 35.1562 17.2031C34.6094 17.8542 34.1016 18.4401 33.6328 18.9609C33.1641 19.4557 32.7474 19.9635 32.3828 20.4844C32.0443 21.0052 31.7708 21.5651 31.5625 22.1641C31.3802 22.763 31.2891 23.4792 31.2891 24.3125C31.2891 24.3906 31.2891 24.5078 31.2891 24.6641C31.2891 24.8203 31.2891 24.9766 31.2891 25.1328C31.3151 25.2891 31.3281 25.4453 31.3281 25.6016C31.3281 25.7578 31.3281 25.875 31.3281 25.9531C31.3802 26.2135 31.5234 26.4089 31.7578 26.5391C32.0182 26.6693 32.2526 26.7995 32.4609 26.9297C32.5391 26.9297 32.7344 26.9427 33.0469 26.9688C33.3594 26.9688 33.5417 26.9688 33.5938 26.9688C34.5312 26.9688 35.638 26.8255 36.9141 26.5391C38.1901 26.2266 39.4661 25.8229 40.7422 25.3281C42.0443 24.8333 43.2682 24.2474 44.4141 23.5703C45.5599 22.8672 46.4714 22.138 47.1484 21.3828C47.3047 21.1745 47.4349 20.888 47.5391 20.5234C47.6693 20.1589 47.7995 19.8073 47.9297 19.4688C48.0859 19.1042 48.2552 18.7917 48.4375 18.5312C48.6198 18.2708 48.8932 18.1406 49.2578 18.1406C49.5964 18.1406 49.8047 18.2839 49.8828 18.5703C49.987 18.8307 50.0391 19.0911 50.0391 19.3516C50.0391 20.1849 49.8307 20.9401 49.4141 21.6172C49.0234 22.2943 48.5286 22.9062 47.9297 23.4531C47.3307 24 46.6667 24.4818 45.9375 24.8984C45.2344 25.3151 44.5573 25.6667 43.9062 25.9531C43.724 26.0052 43.3203 26.1484 42.6953 26.3828C42.0964 26.6172 41.4453 26.8646 40.7422 27.125C40.0391 27.3854 39.349 27.6458 38.6719 27.9062C38.0208 28.1406 37.5391 28.3229 37.2266 28.4531C36.8099 28.5833 36.4583 28.6875 36.1719 28.7656C35.8854 28.8177 35.625 28.8698 35.3906 28.9219C35.1562 28.974 34.9089 29 34.6484 29C34.4141 29.026 34.1276 29.0391 33.7891 29.0391C32.8516 29.0391 32.0703 28.9219 31.4453 28.6875C30.8464 28.4531 30.3646 28.1146 30 27.6719C29.6354 27.2031 29.362 26.6432 29.1797 25.9922C29.0234 25.3151 28.9193 24.5339 28.8672 23.6484ZM49.2188 28.0625C49.2969 27.4115 49.401 26.7995 49.5312 26.2266C49.6615 25.6276 49.8047 25.0417 49.9609 24.4688C50.1172 23.8958 50.2865 23.3099 50.4688 22.7109C50.6771 22.0859 50.8984 21.3828 51.1328 20.6016V20.4062C50.0911 21.0052 49.349 21.3047 48.9062 21.3047C48.4896 21.3047 48.2812 21.1484 48.2812 20.8359C48.2552 20.5234 48.3854 20.1068 48.6719 19.5859C48.9844 19.0651 49.349 18.5833 49.7656 18.1406C50.2083 17.6979 50.651 17.3464 51.0938 17.0859C51.5625 16.8255 51.9271 16.7865 52.1875 16.9688C52.5 16.9688 52.7474 17.0208 52.9297 17.125C53.138 17.2292 53.3594 17.3854 53.5938 17.5938C54.1927 17.125 54.7526 16.7474 55.2734 16.4609C55.7943 16.1745 56.4193 16.0312 57.1484 16.0312C58.2943 16.0312 59.1536 16.2917 59.7266 16.8125C60.3255 17.3333 60.7552 18.1667 61.0156 19.3125C61.4583 18.8698 61.862 18.4661 62.2266 18.1016C62.5911 17.7109 62.9818 17.3854 63.3984 17.125C63.8411 16.8385 64.3099 16.6302 64.8047 16.5C65.2995 16.3438 65.8594 16.2656 66.4844 16.2656C67.0052 16.2656 67.513 16.4609 68.0078 16.8516C68.5026 17.2422 68.8542 17.6719 69.0625 18.1406C69.0625 18.2448 69.0625 18.4792 69.0625 18.8438C69.0625 19.2083 69.0625 19.4557 69.0625 19.5859C69.0625 20.4714 68.9583 21.3307 68.75 22.1641C68.5417 22.9714 68.4375 23.8047 68.4375 24.6641C68.4375 25.0286 68.4766 25.4062 68.5547 25.7969C68.6589 26.1615 68.9453 26.3438 69.4141 26.3438C70.0391 26.3438 70.599 26.2135 71.0938 25.9531C71.6146 25.6927 72.0833 25.3802 72.5 25.0156C72.9427 24.625 73.3333 24.2083 73.6719 23.7656C74.0365 23.3229 74.362 22.9193 74.6484 22.5547C74.9609 22.1641 75.2474 21.8385 75.5078 21.5781C75.7682 21.3177 76.0286 21.1875 76.2891 21.1875C76.4714 21.1875 76.6667 21.2656 76.875 21.4219C77.1094 21.5521 77.2266 21.7214 77.2266 21.9297C77.2266 21.9557 77.2135 21.9948 77.1875 22.0469C77.1875 22.099 77.1875 22.138 77.1875 22.1641C76.9271 22.9714 76.5495 23.7396 76.0547 24.4688C75.5599 25.1979 74.987 25.849 74.3359 26.4219C73.6849 26.9688 72.9557 27.4115 72.1484 27.75C71.3672 28.0625 70.5339 28.2188 69.6484 28.2188C68.8151 28.2188 68.112 28.1146 67.5391 27.9062C66.9661 27.6719 66.5234 27.151 66.2109 26.3438C66.2109 26.2656 66.1979 26.0964 66.1719 25.8359C66.1719 25.5495 66.1719 25.3802 66.1719 25.3281C66.1719 24.3385 66.263 23.388 66.4453 22.4766C66.6536 21.5651 66.7578 20.6406 66.7578 19.7031C66.7578 19.625 66.7448 19.4557 66.7188 19.1953C66.7188 18.9349 66.7188 18.7656 66.7188 18.6875C66.6146 18.5573 66.4453 18.4922 66.2109 18.4922C66.0026 18.4922 65.8073 18.4922 65.625 18.4922C65.0781 18.4922 64.5573 18.6875 64.0625 19.0781C63.5677 19.4688 63.112 19.9635 62.6953 20.5625C62.2786 21.1615 61.901 21.8385 61.5625 22.5938C61.25 23.3229 60.9766 24.0651 60.7422 24.8203C60.5078 25.5495 60.3125 26.2396 60.1562 26.8906C60.026 27.5156 59.9479 28.0365 59.9219 28.4531L59.4922 28.8438H58.1641C57.9297 28.8438 57.7995 28.7266 57.7734 28.4922C57.7734 28.2318 57.7734 28.0365 57.7734 27.9062C57.7734 27.2812 57.8125 26.6562 57.8906 26.0312C57.9948 25.3802 58.099 24.7422 58.2031 24.1172C58.3333 23.4661 58.4505 22.8151 58.5547 22.1641C58.6589 21.513 58.724 20.875 58.75 20.25C58.724 20.0417 58.6979 19.8203 58.6719 19.5859C58.6458 19.3255 58.5938 19.0911 58.5156 18.8828C58.4375 18.6745 58.3203 18.5052 58.1641 18.375C58.0078 18.2188 57.7865 18.1406 57.5 18.1406C57.0833 18.1406 56.6797 18.2188 56.2891 18.375C55.8984 18.5312 55.5339 18.7396 55.1953 19C54.8828 19.2344 54.5964 19.5339 54.3359 19.8984C54.1016 20.237 53.9323 20.6146 53.8281 21.0312L51.4844 28.6094L51.1328 29C51.1328 29 51.0547 29 50.8984 29C50.7422 29.026 50.625 29.0391 50.5469 29.0391C50.2604 29.0391 49.9609 29.013 49.6484 28.9609C49.362 28.8828 49.2188 28.6354 49.2188 28.2188V28.0625ZM75.9375 22.9062C75.9896 22.75 76.0677 22.4766 76.1719 22.0859C76.3021 21.6693 76.4193 21.2266 76.5234 20.7578C76.6536 20.2891 76.7578 19.8464 76.8359 19.4297C76.9401 18.987 77.0182 18.6875 77.0703 18.5312C77.2266 17.9062 77.4089 17.2292 77.6172 16.5C77.8516 15.7708 78.1641 15.0938 78.5547 14.4688C78.9453 13.8438 79.4401 13.3359 80.0391 12.9453C80.6641 12.5286 81.4323 12.3203 82.3438 12.3203C82.6823 12.3203 82.9167 12.4505 83.0469 12.7109C83.2031 12.9453 83.3333 13.2057 83.4375 13.4922C83.4375 13.5964 83.4375 13.7917 83.4375 14.0781C83.4635 14.3385 83.4766 14.5208 83.4766 14.625C83.4766 15.7448 83.3594 16.7344 83.125 17.5938C82.9167 18.4531 82.5781 19.2474 82.1094 19.9766C81.6667 20.7057 81.1198 21.3958 80.4688 22.0469C79.8177 22.6719 79.0755 23.3359 78.2422 24.0391C78.2161 24.1172 78.1771 24.2474 78.125 24.4297C78.0729 24.612 78.0469 24.7422 78.0469 24.8203V24.8984C78.0469 25.3672 78.125 25.7448 78.2812 26.0312C78.4375 26.3177 78.6458 26.5521 78.9062 26.7344C79.1927 26.8906 79.5052 26.9948 79.8438 27.0469C80.2083 27.0729 80.599 27.0859 81.0156 27.0859C82.2396 27.0859 83.4115 26.9167 84.5312 26.5781C85.651 26.2396 86.6797 25.6927 87.6172 24.9375C87.7474 24.8073 87.9036 24.625 88.0859 24.3906C88.2943 24.1302 88.5026 23.8698 88.7109 23.6094C88.9193 23.349 89.1406 23.1276 89.375 22.9453C89.6094 22.737 89.8568 22.6328 90.1172 22.6328C90.3776 22.6328 90.5339 22.737 90.5859 22.9453C90.638 23.1536 90.6641 23.362 90.6641 23.5703C90.6641 24.1432 90.4818 24.6901 90.1172 25.2109C89.7786 25.7057 89.3229 26.1615 88.75 26.5781C88.2031 26.9688 87.5651 27.3203 86.8359 27.6328C86.1328 27.9453 85.4297 28.2057 84.7266 28.4141C84.0234 28.6224 83.3464 28.7786 82.6953 28.8828C82.0703 28.987 81.5365 29.0391 81.0938 29.0391C79.7135 29.0391 78.5547 28.8177 77.6172 28.375C76.7057 27.9062 76.0807 26.9818 75.7422 25.6016L75.9375 22.9062ZM81.5234 15.2109C81.0026 15.6797 80.5859 16.1094 80.2734 16.5C79.987 16.8646 79.7526 17.2552 79.5703 17.6719C79.4141 18.0625 79.2708 18.4922 79.1406 18.9609C79.0365 19.4297 78.9193 19.9766 78.7891 20.6016C79.2839 20.2109 79.6875 19.8203 80 19.4297C80.3385 19.0391 80.612 18.6354 80.8203 18.2188C81.0286 17.8021 81.1849 17.3594 81.2891 16.8906C81.3932 16.3958 81.4714 15.8359 81.5234 15.2109Z"/></svg>