<svg xmlns="http://www.w3.org/2000/svg" width="109" height="36" fill="none" viewBox="0 0 109 36"><path fill="#fff" d="M0.9375 25.0625C0.9375 23.75 0.984375 22.5312 1.07812 21.4062C1.17188 20.2812 1.32812 19.1875 1.54688 18.125C1.76562 17.0312 2.01562 15.9375 2.29688 14.8438C2.60938 13.7188 2.98438 12.5156 3.42188 11.2344C3.70312 10.3594 4.14062 9.29687 4.73438 8.04688C5.35938 6.79688 6.09375 5.625 6.9375 4.53125C7.8125 3.40625 8.78125 2.45312 9.84375 1.67188C10.9375 0.890625 12.0781 0.5 13.2656 0.5H17.1562C17.1875 0.5 17.2812 0.53125 17.4375 0.59375C17.625 0.625 17.7656 0.65625 17.8594 0.6875C19.0781 1.28125 20.0312 2.01563 20.7188 2.89062C21.4062 3.73438 21.875 4.82813 22.125 6.17188C22.4062 7.45313 22.7031 8.6875 23.0156 9.875C23.3594 11.0312 23.5312 12.25 23.5312 13.5312C23.5312 15.0625 23.4844 16.5781 23.3906 18.0781C23.3281 19.5781 23.2969 21.0938 23.2969 22.625C23.2969 22.7188 23.2969 22.8906 23.2969 23.1406C23.2969 23.3594 23.2969 23.6094 23.2969 23.8906C23.3281 24.1719 23.3438 24.4375 23.3438 24.6875C23.3438 24.9375 23.3438 25.0938 23.3438 25.1562C23.375 25.4062 23.4062 25.7656 23.4375 26.2344C23.4688 26.7031 23.5312 27.2188 23.625 27.7812C23.7188 28.3438 23.8125 28.9219 23.9062 29.5156C24 30.1094 24.1094 30.6562 24.2344 31.1562C24.3906 31.625 24.5625 32.0156 24.75 32.3281C24.9375 32.6406 25.1562 32.7969 25.4062 32.7969C26.25 32.7969 27.125 32.6875 28.0312 32.4688C28.9688 32.25 29.8125 31.9062 30.5625 31.4375C30.625 31.375 30.7656 31.2656 30.9844 31.1094C31.2344 30.9219 31.4844 30.7344 31.7344 30.5469C32.0156 30.3281 32.2656 30.1406 32.4844 29.9844C32.7344 29.7969 32.9219 29.6562 33.0469 29.5625C33.2656 29.4062 33.4375 29.2969 33.5625 29.2344C33.7188 29.1406 33.9062 29.0938 34.125 29.0938C34.3125 29.0938 34.4844 29.1562 34.6406 29.2812C34.7969 29.375 34.875 29.5312 34.875 29.75C34.875 30.4688 34.4688 31.1406 33.6562 31.7656C32.875 32.3906 31.9531 32.9531 30.8906 33.4531C29.8281 33.9531 28.75 34.3594 27.6562 34.6719C26.5938 34.9531 25.7969 35.0938 25.2656 35.0938C24.5781 35.0938 23.9844 34.75 23.4844 34.0625C23.0156 33.3438 22.5938 32.5156 22.2188 31.5781C21.875 30.6094 21.5625 29.625 21.2812 28.625C21.0312 27.5938 20.7812 26.75 20.5312 26.0938C20.0938 27.3438 19.4375 28.5156 18.5625 29.6094C17.7188 30.6719 16.75 31.6094 15.6562 32.4219C14.5625 33.2344 13.375 33.875 12.0938 34.3438C10.8125 34.8125 9.51562 35.0469 8.20312 35.0469C6.76562 35.0469 5.5625 34.7656 4.59375 34.2031C3.65625 33.6094 2.90625 32.8594 2.34375 31.9531C1.8125 31.0156 1.4375 29.9531 1.21875 28.7656C1.03125 27.5469 0.9375 26.3125 0.9375 25.0625ZM3.84375 24.6875C3.84375 25.625 3.85938 26.5781 3.89062 27.5469C3.95312 28.4844 4.125 29.3438 4.40625 30.125C4.71875 30.9062 5.1875 31.5469 5.8125 32.0469C6.46875 32.5156 7.39062 32.75 8.57812 32.75C10.1406 32.75 11.5312 32.4062 12.75 31.7188C13.9688 31 15.0312 30.0781 15.9375 28.9531C16.8438 27.7969 17.6094 26.4844 18.2344 25.0156C18.8594 23.5156 19.3594 22 19.7344 20.4688C20.1094 18.9062 20.375 17.3906 20.5312 15.9219C20.7188 14.4531 20.8125 13.1406 20.8125 11.9844C20 11.9844 19.5938 11.6094 19.5938 10.8594C19.5938 10.3906 19.6875 9.98438 19.875 9.64062C20.0625 9.26562 20.1562 8.79688 20.1562 8.23438C20.1562 7.54688 20.0312 6.875 19.7812 6.21875C19.5625 5.5625 19.2188 4.96875 18.75 4.4375C18.3125 3.90625 17.7812 3.5 17.1562 3.21875C16.5625 2.90625 15.9062 2.75 15.1875 2.75C13.7188 2.75 12.4219 3.15625 11.2969 3.96875C10.2031 4.75 9.23438 5.78125 8.39062 7.0625C7.54688 8.34375 6.82812 9.79688 6.23438 11.4219C5.67188 13.0156 5.20312 14.6406 4.82812 16.2969C4.48438 17.9219 4.23438 19.4844 4.07812 20.9844C3.92188 22.4531 3.84375 23.6875 3.84375 24.6875ZM34.6406 28.5781C34.7969 26.9844 35.1562 25.4688 35.7188 24.0312C36.3125 22.5938 36.9844 21.3594 37.7344 20.3281C38.5156 19.2969 39.2969 18.5 40.0781 17.9375C40.8906 17.375 41.5938 17.2031 42.1875 17.4219C42.3438 17.3281 42.4688 17.25 42.5625 17.1875C42.6875 17.0938 42.7812 17.0156 42.8438 16.9531C42.9375 16.8594 43.0312 16.7969 43.125 16.7656C43.25 16.7031 43.4219 16.6719 43.6406 16.6719C44.0781 16.6719 44.4688 16.8125 44.8125 17.0938C45.1562 17.375 45.4531 17.7188 45.7031 18.125C45.9844 18.5312 46.1875 18.9688 46.3125 19.4375C46.4688 19.875 46.5469 20.2812 46.5469 20.6562C46.5469 21.0625 46.3906 21.3438 46.0781 21.5C45.7656 21.6562 45.4062 21.7344 45 21.7344C44.75 21.7344 44.5312 21.6875 44.3438 21.5938C44.1562 21.4688 43.9844 21.3281 43.8281 21.1719C43.7031 21.0156 43.5625 20.8594 43.4062 20.7031C43.25 20.5469 43.0469 20.4375 42.7969 20.375H42.75H42.6094C42.5781 20.4062 42.5 20.4844 42.375 20.6094C42.2812 20.7031 42.2188 20.7812 42.1875 20.8438C41.5312 21.625 40.9219 22.3281 40.3594 22.9531C39.7969 23.5469 39.2969 24.1562 38.8594 24.7812C38.4531 25.4062 38.125 26.0781 37.875 26.7969C37.6562 27.5156 37.5469 28.375 37.5469 29.375C37.5469 29.4688 37.5469 29.6094 37.5469 29.7969C37.5469 29.9844 37.5469 30.1719 37.5469 30.3594C37.5781 30.5469 37.5938 30.7344 37.5938 30.9219C37.5938 31.1094 37.5938 31.25 37.5938 31.3438C37.6562 31.6562 37.8281 31.8906 38.1094 32.0469C38.4219 32.2031 38.7031 32.3594 38.9531 32.5156C39.0469 32.5156 39.2812 32.5312 39.6562 32.5625C40.0312 32.5625 40.25 32.5625 40.3125 32.5625C41.4375 32.5625 42.7656 32.3906 44.2969 32.0469C45.8281 31.6719 47.3594 31.1875 48.8906 30.5938C50.4531 30 51.9219 29.2969 53.2969 28.4844C54.6719 27.6406 55.7656 26.7656 56.5781 25.8594C56.7656 25.6094 56.9219 25.2656 57.0469 24.8281C57.2031 24.3906 57.3594 23.9688 57.5156 23.5625C57.7031 23.125 57.9062 22.75 58.125 22.4375C58.3438 22.125 58.6719 21.9688 59.1094 21.9688C59.5156 21.9688 59.7656 22.1406 59.8594 22.4844C59.9844 22.7969 60.0469 23.1094 60.0469 23.4219C60.0469 24.4219 59.7969 25.3281 59.2969 26.1406C58.8281 26.9531 58.2344 27.6875 57.5156 28.3438C56.7969 29 56 29.5781 55.125 30.0781C54.2812 30.5781 53.4688 31 52.6875 31.3438C52.4688 31.4062 51.9844 31.5781 51.2344 31.8594C50.5156 32.1406 49.7344 32.4375 48.8906 32.75C48.0469 33.0625 47.2188 33.375 46.4062 33.6875C45.625 33.9688 45.0469 34.1875 44.6719 34.3438C44.1719 34.5 43.75 34.625 43.4062 34.7188C43.0625 34.7812 42.75 34.8438 42.4688 34.9062C42.1875 34.9688 41.8906 35 41.5781 35C41.2969 35.0312 40.9531 35.0469 40.5469 35.0469C39.4219 35.0469 38.4844 34.9062 37.7344 34.625C37.0156 34.3438 36.4375 33.9375 36 33.4062C35.5625 32.8438 35.2344 32.1719 35.0156 31.3906C34.8281 30.5781 34.7031 29.6406 34.6406 28.5781ZM59.0625 33.875C59.1562 33.0938 59.2812 32.3594 59.4375 31.6719C59.5938 30.9531 59.7656 30.25 59.9531 29.5625C60.1406 28.875 60.3438 28.1719 60.5625 27.4531C60.8125 26.7031 61.0781 25.8594 61.3594 24.9219V24.6875C60.1094 25.4062 59.2188 25.7656 58.6875 25.7656C58.1875 25.7656 57.9375 25.5781 57.9375 25.2031C57.9062 24.8281 58.0625 24.3281 58.4062 23.7031C58.7812 23.0781 59.2188 22.5 59.7188 21.9688C60.25 21.4375 60.7812 21.0156 61.3125 20.7031C61.875 20.3906 62.3125 20.3438 62.625 20.5625C63 20.5625 63.2969 20.625 63.5156 20.75C63.7656 20.875 64.0312 21.0625 64.3125 21.3125C65.0312 20.75 65.7031 20.2969 66.3281 19.9531C66.9531 19.6094 67.7031 19.4375 68.5781 19.4375C69.9531 19.4375 70.9844 19.75 71.6719 20.375C72.3906 21 72.9062 22 73.2188 23.375C73.75 22.8438 74.2344 22.3594 74.6719 21.9219C75.1094 21.4531 75.5781 21.0625 76.0781 20.75C76.6094 20.4062 77.1719 20.1562 77.7656 20C78.3594 19.8125 79.0312 19.7188 79.7812 19.7188C80.4062 19.7188 81.0156 19.9531 81.6094 20.4219C82.2031 20.8906 82.625 21.4062 82.875 21.9688C82.875 22.0938 82.875 22.375 82.875 22.8125C82.875 23.25 82.875 23.5469 82.875 23.7031C82.875 24.7656 82.75 25.7969 82.5 26.7969C82.25 27.7656 82.125 28.7656 82.125 29.7969C82.125 30.2344 82.1719 30.6875 82.2656 31.1562C82.3906 31.5938 82.7344 31.8125 83.2969 31.8125C84.0469 31.8125 84.7188 31.6562 85.3125 31.3438C85.9375 31.0312 86.5 30.6562 87 30.2188C87.5312 29.75 88 29.25 88.4062 28.7188C88.8438 28.1875 89.2344 27.7031 89.5781 27.2656C89.9531 26.7969 90.2969 26.4062 90.6094 26.0938C90.9219 25.7812 91.2344 25.625 91.5469 25.625C91.7656 25.625 92 25.7188 92.25 25.9062C92.5312 26.0625 92.6719 26.2656 92.6719 26.5156C92.6719 26.5469 92.6562 26.5938 92.625 26.6562C92.625 26.7188 92.625 26.7656 92.625 26.7969C92.3125 27.7656 91.8594 28.6875 91.2656 29.5625C90.6719 30.4375 89.9844 31.2188 89.2031 31.9062C88.4219 32.5625 87.5469 33.0938 86.5781 33.5C85.6406 33.875 84.6406 34.0625 83.5781 34.0625C82.5781 34.0625 81.7344 33.9375 81.0469 33.6875C80.3594 33.4062 79.8281 32.7812 79.4531 31.8125C79.4531 31.7188 79.4375 31.5156 79.4062 31.2031C79.4062 30.8594 79.4062 30.6562 79.4062 30.5938C79.4062 29.4062 79.5156 28.2656 79.7344 27.1719C79.9844 26.0781 80.1094 24.9688 80.1094 23.8438C80.1094 23.75 80.0938 23.5469 80.0625 23.2344C80.0625 22.9219 80.0625 22.7188 80.0625 22.625C79.9375 22.4688 79.7344 22.3906 79.4531 22.3906C79.2031 22.3906 78.9688 22.3906 78.75 22.3906C78.0938 22.3906 77.4688 22.625 76.875 23.0938C76.2812 23.5625 75.7344 24.1562 75.2344 24.875C74.7344 25.5938 74.2812 26.4062 73.875 27.3125C73.5 28.1875 73.1719 29.0781 72.8906 29.9844C72.6094 30.8594 72.375 31.6875 72.1875 32.4688C72.0312 33.2188 71.9375 33.8438 71.9062 34.3438L71.3906 34.8125H69.7969C69.5156 34.8125 69.3594 34.6719 69.3281 34.3906C69.3281 34.0781 69.3281 33.8438 69.3281 33.6875C69.3281 32.9375 69.375 32.1875 69.4688 31.4375C69.5938 30.6562 69.7188 29.8906 69.8438 29.1406C70 28.3594 70.1406 27.5781 70.2656 26.7969C70.3906 26.0156 70.4688 25.25 70.5 24.5C70.4688 24.25 70.4375 23.9844 70.4062 23.7031C70.375 23.3906 70.3125 23.1094 70.2188 22.8594C70.125 22.6094 69.9844 22.4062 69.7969 22.25C69.6094 22.0625 69.3438 21.9688 69 21.9688C68.5 21.9688 68.0156 22.0625 67.5469 22.25C67.0781 22.4375 66.6406 22.6875 66.2344 23C65.8594 23.2812 65.5156 23.6406 65.2031 24.0781C64.9219 24.4844 64.7188 24.9375 64.5938 25.4375L61.7812 34.5312L61.3594 35C61.3594 35 61.2656 35 61.0781 35C60.8906 35.0312 60.75 35.0469 60.6562 35.0469C60.3125 35.0469 59.9531 35.0156 59.5781 34.9531C59.2344 34.8594 59.0625 34.5625 59.0625 34.0625V33.875ZM91.125 27.6875C91.1875 27.5 91.2812 27.1719 91.4062 26.7031C91.5625 26.2031 91.7031 25.6719 91.8281 25.1094C91.9844 24.5469 92.1094 24.0156 92.2031 23.5156C92.3281 22.9844 92.4219 22.625 92.4844 22.4375C92.6719 21.6875 92.8906 20.875 93.1406 20C93.4219 19.125 93.7969 18.3125 94.2656 17.5625C94.7344 16.8125 95.3281 16.2031 96.0469 15.7344C96.7969 15.2344 97.7188 14.9844 98.8125 14.9844C99.2188 14.9844 99.5 15.1406 99.6562 15.4531C99.8438 15.7344 100 16.0469 100.125 16.3906C100.125 16.5156 100.125 16.75 100.125 17.0938C100.156 17.4062 100.172 17.625 100.172 17.75C100.172 19.0938 100.031 20.2812 99.75 21.3125C99.5 22.3438 99.0938 23.2969 98.5312 24.1719C98 25.0469 97.3438 25.875 96.5625 26.6562C95.7812 27.4062 94.8906 28.2031 93.8906 29.0469C93.8594 29.1406 93.8125 29.2969 93.75 29.5156C93.6875 29.7344 93.6562 29.8906 93.6562 29.9844V30.0781C93.6562 30.6406 93.75 31.0938 93.9375 31.4375C94.125 31.7812 94.375 32.0625 94.6875 32.2812C95.0312 32.4688 95.4062 32.5938 95.8125 32.6562C96.25 32.6875 96.7188 32.7031 97.2188 32.7031C98.6875 32.7031 100.094 32.5 101.438 32.0938C102.781 31.6875 104.016 31.0312 105.141 30.125C105.297 29.9688 105.484 29.75 105.703 29.4688C105.953 29.1562 106.203 28.8438 106.453 28.5312C106.703 28.2188 106.969 27.9531 107.25 27.7344C107.531 27.4844 107.828 27.3594 108.141 27.3594C108.453 27.3594 108.641 27.4844 108.703 27.7344C108.766 27.9844 108.797 28.2344 108.797 28.4844C108.797 29.1719 108.578 29.8281 108.141 30.4531C107.734 31.0469 107.188 31.5938 106.5 32.0938C105.844 32.5625 105.078 32.9844 104.203 33.3594C103.359 33.7344 102.516 34.0469 101.672 34.2969C100.828 34.5469 100.016 34.7344 99.2344 34.8594C98.4844 34.9844 97.8438 35.0469 97.3125 35.0469C95.6562 35.0469 94.2656 34.7812 93.1406 34.25C92.0469 33.6875 91.2969 32.5781 90.8906 30.9219L91.125 27.6875ZM97.8281 18.4531C97.2031 19.0156 96.7031 19.5312 96.3281 20C95.9844 20.4375 95.7031 20.9062 95.4844 21.4062C95.2969 21.875 95.125 22.3906 94.9688 22.9531C94.8438 23.5156 94.7031 24.1719 94.5469 24.9219C95.1406 24.4531 95.625 23.9844 96 23.5156C96.4062 23.0469 96.7344 22.5625 96.9844 22.0625C97.2344 21.5625 97.4219 21.0312 97.5469 20.4688C97.6719 19.875 97.7656 19.2031 97.8281 18.4531Z"/></svg>